#define adjust_stip.xbm_width 8
#define adjust_stip.xbm_height 8
static unsigned char adjust_stip.xbm_bits[] = { 0xc0, 0x60, 0x30, 0x18, 0x81, 0x03, 0x06, 0x0c };

