#define select_stip.xbm_width 8
#define select_stip.xbm_height 8
static unsigned char select_stip.xbm_bits[] = { 0xc0, 0xc0, 0x0c, 0x0c, 0xc0, 0xc0, 0x0c, 0x0c };

